<svg width="37" height="35" viewBox="0 0 37 35" fill="none" xmlns="http://www.w3.org/2000/svg">
<path d="M10.6777 10.5092C10.6777 9.37151 11.6557 8.44922 12.862 8.44922H20.6285C21.8348 8.44922 22.8128 9.37151 22.8128 10.5092V15.3159H24.0263C25.2326 15.3159 26.2106 16.2382 26.2106 17.3759V26.0737C26.2106 26.4529 25.8846 26.7603 25.4825 26.7603H22.8128V23.327C22.8128 22.6949 22.2695 22.1826 21.5993 22.1826H15.289C14.6188 22.1826 14.0755 22.6949 14.0755 23.327V26.7603H11.4058C11.0037 26.7603 10.6777 26.4529 10.6777 26.0737V10.5092ZM21.3566 23.5559V26.7603H19.1723V23.5559H21.3566ZM17.7161 23.5559V26.7603H15.5317V23.5559H17.7161ZM14.0755 12.5692C14.0755 13.0749 14.5102 13.4848 15.0463 13.4848C15.5825 13.4848 16.0172 13.0749 16.0172 12.5692C16.0172 12.0636 15.5825 11.6537 15.0463 11.6537C14.5102 11.6537 14.0755 12.0636 14.0755 12.5692ZM15.0463 18.0626C14.5102 18.0626 14.0755 18.4724 14.0755 18.9781C14.0755 19.4838 14.5102 19.8937 15.0463 19.8937C15.5825 19.8937 16.0172 19.4838 16.0172 18.9781C16.0172 18.4724 15.5825 18.0626 15.0463 18.0626ZM15.0463 14.8581C14.5102 14.8581 14.0755 15.268 14.0755 15.7737C14.0755 16.2793 14.5102 16.6892 15.0463 16.6892C15.5825 16.6892 16.0172 16.2793 16.0172 15.7737C16.0172 15.268 15.5825 14.8581 15.0463 14.8581ZM18.4442 11.6537C17.908 11.6537 17.4734 12.0636 17.4734 12.5692C17.4734 13.0749 17.908 13.4848 18.4442 13.4848C18.9803 13.4848 19.415 13.0749 19.415 12.5692C19.415 12.0636 18.9803 11.6537 18.4442 11.6537ZM18.4442 18.0626C17.908 18.0626 17.4734 18.4724 17.4734 18.9781C17.4734 19.4838 17.908 19.8937 18.4442 19.8937C18.9803 19.8937 19.415 19.4838 19.415 18.9781C19.415 18.4724 18.9803 18.0626 18.4442 18.0626ZM21.842 18.0626C21.3058 18.0626 20.8712 18.4724 20.8712 18.9781C20.8712 19.4838 21.3058 19.8937 21.842 19.8937C22.3781 19.8937 22.8128 19.4838 22.8128 18.9781C22.8128 18.4724 22.3781 18.0626 21.842 18.0626ZM18.4442 14.8581C17.908 14.8581 17.4734 15.268 17.4734 15.7737C17.4734 16.2793 17.908 16.6892 18.4442 16.6892C18.9803 16.6892 19.415 16.2793 19.415 15.7737C19.415 15.268 18.9803 14.8581 18.4442 14.8581Z" fill="white"/>
<path d="M20.0917 33.9766C19.549 34.0238 18.9981 34.0474 18.4473 34.0474C17.913 34.0474 17.3829 34.0277 16.8528 33.9805C16.8863 34.2915 16.9154 34.6103 16.9448 34.941C17.4414 34.9804 17.9464 35 18.4473 35C19.027 35.0016 19.6065 34.9753 20.1834 34.9213C20.9296 34.8554 21.671 34.7476 22.4037 34.5985C22.3975 34.2752 22.4426 33.9528 22.5374 33.642L22.5414 33.5869C21.7358 33.7718 20.9171 33.9021 20.0917 33.9766ZM35.8636 11.8857C34.9817 9.49625 33.5577 7.31703 31.6911 5.49997C29.8244 3.68291 27.56 2.27175 25.0557 1.36488C22.5514 0.45801 19.8674 0.0772674 17.1911 0.2492C14.5147 0.421132 11.9103 1.1416 9.55952 2.36037C7.20872 3.57913 5.16809 5.26687 3.57991 7.30587C1.99173 9.34488 0.894227 11.6861 0.363953 14.1662C-0.166322 16.6464 -0.116615 19.2057 0.509607 21.6659C1.13583 24.1261 2.32348 26.4278 3.98977 28.4106C4.15667 28.6074 4.32786 28.8042 4.50313 28.9931C4.51984 29.0089 4.5282 29.0207 4.54063 29.0325C4.97151 29.5012 5.42994 29.9467 5.91377 30.3669C6.03074 30.4693 6.1516 30.5716 6.27265 30.67C6.28528 30.6779 6.29363 30.6897 6.30607 30.6976C6.55652 30.9101 6.81535 31.1109 7.08231 31.3038C7.12001 31.3313 7.15343 31.3549 7.18665 31.3825C7.25777 31.4337 7.32875 31.4849 7.39961 31.536C7.82532 31.8391 8.26775 32.1186 8.71853 32.3902C8.72688 32.3902 8.73096 32.3941 8.73932 32.3981C8.86873 32.4729 9.0022 32.5476 9.1316 32.6185C9.26529 32.6933 9.40306 32.7681 9.5449 32.8429C9.64924 32.898 9.75765 32.9531 9.86199 33.0043L10.0165 33.0791C10.3753 33.2523 10.7385 33.4176 11.1141 33.5711C11.1893 33.6026 11.2726 33.6341 11.3478 33.6656L11.3645 33.6735C11.5398 33.7404 11.7151 33.8073 11.8946 33.8703C12.4819 34.082 13.0809 34.2634 13.6892 34.4135C13.7935 34.4411 13.8938 34.4647 13.9981 34.4844C14.9652 34.7132 15.9508 34.866 16.9448 34.941C17.4414 34.9804 17.9464 35 18.4473 35C19.027 35.0016 19.6065 34.9753 20.1834 34.9213C20.9296 34.8554 21.671 34.7476 22.4037 34.5985C22.9547 34.4844 23.5015 34.3466 24.0399 34.1891C24.044 34.1891 24.044 34.1852 24.0483 34.1852C24.4363 34.071 24.8161 33.9411 25.1917 33.8034C25.5799 33.6577 25.9598 33.5003 26.3354 33.331C26.3437 33.3271 26.3562 33.3231 26.3645 33.3192C26.3645 33.3153 26.3729 33.3153 26.3772 33.3113C26.5441 33.2365 26.7067 33.1578 26.8738 33.0791C26.8989 33.0673 26.9237 33.0555 26.9531 33.0397C27.0782 32.9807 27.2033 32.9177 27.3287 32.8547C27.337 32.8508 27.3411 32.8468 27.3495 32.8429C27.6792 32.6697 28.0048 32.4886 28.3262 32.2958C28.4138 32.2446 28.5015 32.1934 28.5891 32.1344C28.7185 32.0596 28.8436 31.9769 28.9647 31.8942C29.1275 31.7879 29.2902 31.6777 29.4489 31.5636C29.5016 31.5316 29.5518 31.4961 29.5991 31.4573C29.9873 31.1818 30.3629 30.8905 30.7218 30.5834C33.4436 28.296 35.385 25.2985 36.3003 21.9703C37.2155 18.642 37.0636 15.1325 35.8636 11.8857ZM30.4088 29.5679C29.957 29.9687 29.4834 30.3472 28.9898 30.7015C28.8814 30.7802 28.7685 30.859 28.656 30.9298C28.5474 31.0086 28.4389 31.0833 28.3263 31.1542C28.2303 31.2172 28.1343 31.2802 28.034 31.3392C28.0257 31.3471 28.0132 31.351 28.0049 31.3589C27.9338 31.4061 27.8588 31.4494 27.7878 31.4927C27.5665 31.6226 27.3371 31.7525 27.1117 31.8746C27.0575 31.9021 27.0073 31.9336 26.9531 31.9611C26.9238 31.9769 26.8946 31.9926 26.8612 32.0084C26.7361 32.0753 26.6107 32.1344 26.4856 32.1973C26.4689 32.2091 26.4481 32.2131 26.4314 32.2249C26.4251 32.2258 26.4193 32.2286 26.4147 32.2327C26.3271 32.2761 26.2394 32.3154 26.1518 32.3548C26.0766 32.3902 26.0057 32.4256 25.9305 32.4571C25.6258 32.5949 25.3128 32.7248 24.9998 32.8468C24.6701 32.9728 24.3362 33.087 23.9981 33.1932C23.9146 33.2208 23.827 33.2523 23.7393 33.2759C23.3427 33.394 22.9464 33.5003 22.5414 33.5869C21.7358 33.7718 20.9171 33.9021 20.0917 33.9766C19.549 34.0238 18.9981 34.0474 18.4473 34.0474C17.913 34.0474 17.3829 34.0277 16.8528 33.9805C15.9073 33.8989 14.9707 33.7436 14.0524 33.516C14.0189 33.5081 13.9815 33.5003 13.948 33.4924C13.1948 33.3072 12.4569 33.0704 11.7402 32.7838C11.7027 32.7681 11.6609 32.7563 11.6275 32.7405C11.5857 32.7248 11.5482 32.713 11.5148 32.6972C11.473 32.6815 11.4355 32.6658 11.398 32.65C11.085 32.5201 10.7803 32.3784 10.4756 32.2327L10.3336 32.1619C10.0624 32.0281 9.79519 31.8903 9.53231 31.7368C9.4406 31.6895 9.34461 31.6344 9.2527 31.5793C9.14836 31.5203 9.04402 31.4573 8.94376 31.3943C8.91889 31.3786 8.89389 31.3628 8.86875 31.3471C8.635 31.1975 8.39719 31.0479 8.1718 30.8865C8.01325 30.7763 7.85877 30.67 7.70429 30.5559C7.60403 30.485 7.50398 30.4102 7.40799 30.3315C7.34543 30.2882 7.28287 30.237 7.2201 30.1858C7.13675 30.1189 7.0532 30.052 6.96984 29.9812C6.84043 29.8827 6.71938 29.7725 6.6024 29.6702C6.13245 29.2617 5.68792 28.828 5.27104 28.3712C5.12921 28.2216 4.99552 28.072 4.86632 27.9146C4.83618 27.8836 4.80826 27.8507 4.78276 27.8162C2.68157 25.3144 1.39779 22.29 1.08804 19.1119C0.778281 15.9338 1.45594 12.7393 3.03834 9.91826C4.62074 7.09719 7.03947 4.77146 9.99946 3.2248C12.9594 1.67814 16.3327 0.977419 19.7078 1.20812C23.0828 1.43883 26.3137 2.59098 29.0063 4.52403C31.6989 6.45707 33.7367 9.08743 34.8713 12.0942C36.0059 15.101 36.1881 18.3542 35.3956 21.457C34.6032 24.5598 32.8705 27.378 30.4088 29.5679Z" fill="white"/>
</svg>
