<svg width="37" height="36" viewBox="0 0 37 36" fill="none" xmlns="http://www.w3.org/2000/svg">
<path d="M14.3408 9.06012L15.386 8.74516C16.3653 8.45003 17.4116 8.92699 17.8311 9.8597L18.6657 11.7159C19.0295 12.5247 18.8277 13.4759 18.1667 14.0674L16.3278 15.7136C16.4412 16.6982 16.7922 17.6678 17.3806 18.6224C17.9691 19.5768 18.704 20.3686 19.5854 20.9977L21.7941 20.3031C22.6314 20.0397 23.5431 20.3423 24.0567 21.0539L25.253 22.7115C25.8501 23.5386 25.7427 24.6798 25.0019 25.3811L24.208 26.1327C23.4179 26.8808 22.2894 27.1521 21.2454 26.8451C18.7806 26.12 16.5144 23.9673 14.4468 20.3871C12.3762 16.8016 11.6455 13.7596 12.2545 11.261C12.5108 10.2097 13.3045 9.37242 14.3408 9.06012Z" fill="white"/>
<path d="M20.0917 34.1856C19.549 34.2328 18.9981 34.2564 18.4473 34.2564C17.913 34.2564 17.3829 34.2367 16.8528 34.1895C16.8863 34.5005 16.9154 34.8193 16.9448 35.15C17.4414 35.1893 17.9464 35.209 18.4473 35.209C19.027 35.2106 19.6065 35.1843 20.1834 35.1303C20.9296 35.0644 21.671 34.9566 22.4037 34.8075C22.3975 34.4842 22.4426 34.1618 22.5374 33.851L22.5414 33.7959C21.7358 33.9808 20.9171 34.111 20.0917 34.1856ZM35.8636 12.0947C34.9817 9.70523 33.5577 7.52601 31.6911 5.70896C29.8244 3.8919 27.56 2.48073 25.0557 1.57386C22.5514 0.666995 19.8674 0.286252 17.1911 0.458184C14.5147 0.630117 11.9103 1.35059 9.55952 2.56935C7.20872 3.78812 5.16809 5.47585 3.57991 7.51486C1.99173 9.55386 0.894227 11.8951 0.363953 14.3752C-0.166322 16.8553 -0.116615 19.4147 0.509607 21.8749C1.13583 24.335 2.32348 26.6368 3.98977 28.6195C4.15667 28.8164 4.32786 29.0132 4.50313 29.2021C4.51984 29.2179 4.5282 29.2297 4.54063 29.2415C4.97151 29.7102 5.42994 30.1557 5.91377 30.5759C6.03074 30.6782 6.1516 30.7806 6.27265 30.879C6.28528 30.8869 6.29363 30.8987 6.30607 30.9066C6.55652 31.1191 6.81535 31.3199 7.08231 31.5128C7.12001 31.5403 7.15343 31.5639 7.18665 31.5915C7.25777 31.6427 7.32875 31.6938 7.39961 31.745C7.82532 32.0481 8.26775 32.3276 8.71853 32.5992C8.72688 32.5992 8.73096 32.6031 8.73932 32.6071C8.86873 32.6819 9.0022 32.7566 9.1316 32.8275C9.26529 32.9023 9.40306 32.9771 9.5449 33.0519C9.64924 33.107 9.75765 33.1621 9.86199 33.2133L10.0165 33.2881C10.3753 33.4613 10.7385 33.6266 11.1141 33.7801C11.1893 33.8116 11.2726 33.8431 11.3478 33.8746L11.3645 33.8825C11.5398 33.9494 11.7151 34.0163 11.8946 34.0793C12.4819 34.291 13.0809 34.4724 13.6892 34.6225C13.7935 34.6501 13.8938 34.6737 13.9981 34.6933C14.9652 34.9222 15.9508 35.075 16.9448 35.15C17.4414 35.1893 17.9464 35.209 18.4473 35.209C19.027 35.2106 19.6065 35.1843 20.1834 35.1303C20.9296 35.0644 21.671 34.9566 22.4037 34.8075C22.9547 34.6934 23.5015 34.5556 24.0399 34.3981C24.044 34.3981 24.044 34.3942 24.0483 34.3942C24.4363 34.28 24.8161 34.1501 25.1917 34.0123C25.5799 33.8667 25.9598 33.7093 26.3354 33.54C26.3437 33.5361 26.3562 33.5321 26.3645 33.5282C26.3645 33.5242 26.3729 33.5242 26.3772 33.5203C26.5441 33.4455 26.7067 33.3668 26.8738 33.2881C26.8989 33.2762 26.9237 33.2645 26.9531 33.2487C27.0782 33.1897 27.2033 33.1267 27.3287 33.0637C27.337 33.0598 27.3411 33.0558 27.3495 33.0519C27.6792 32.8787 28.0048 32.6976 28.3262 32.5047C28.4138 32.4536 28.5015 32.4024 28.5891 32.3433C28.7185 32.2685 28.8436 32.1859 28.9647 32.1032C29.1275 31.9969 29.2902 31.8867 29.4489 31.7726C29.5016 31.7406 29.5518 31.7051 29.5991 31.6663C29.9873 31.3907 30.3629 31.0995 30.7218 30.7924C33.4436 28.505 35.385 25.5075 36.3003 22.1793C37.2155 18.851 37.0636 15.3414 35.8636 12.0947ZM30.4088 29.7768C29.957 30.1777 29.4834 30.5561 28.9898 30.9105C28.8814 30.9892 28.7685 31.068 28.656 31.1388C28.5474 31.2175 28.4389 31.2923 28.3263 31.3632C28.2303 31.4262 28.1343 31.4891 28.034 31.5482C28.0257 31.5561 28.0132 31.56 28.0049 31.5679C27.9338 31.6151 27.8588 31.6584 27.7878 31.7017C27.5665 31.8316 27.3371 31.9615 27.1117 32.0835C27.0575 32.1111 27.0073 32.1426 26.9531 32.1701C26.9238 32.1859 26.8946 32.2016 26.8612 32.2174C26.7361 32.2843 26.6107 32.3433 26.4856 32.4063C26.4689 32.4181 26.4481 32.4221 26.4314 32.4339C26.4251 32.4348 26.4193 32.4376 26.4147 32.4417C26.3271 32.4851 26.2394 32.5244 26.1518 32.5638C26.0766 32.5992 26.0057 32.6346 25.9305 32.6661C25.6258 32.8039 25.3128 32.9338 24.9998 33.0558C24.6701 33.1818 24.3362 33.2959 23.9981 33.4022C23.9146 33.4298 23.827 33.4613 23.7393 33.4849C23.3427 33.603 22.9464 33.7093 22.5414 33.7959C21.7358 33.9808 20.9171 34.111 20.0917 34.1856C19.549 34.2328 18.9981 34.2564 18.4473 34.2564C17.913 34.2564 17.3829 34.2367 16.8528 34.1895C15.9073 34.1079 14.9707 33.9525 14.0524 33.725C14.0189 33.7171 13.9815 33.7092 13.948 33.7014C13.1948 33.5161 12.4569 33.2793 11.7402 32.9928C11.7027 32.9771 11.6609 32.9653 11.6275 32.9495C11.5857 32.9338 11.5482 32.922 11.5148 32.9062C11.473 32.8905 11.4355 32.8747 11.398 32.859C11.085 32.7291 10.7803 32.5874 10.4756 32.4417L10.3336 32.3709C10.0624 32.2371 9.79519 32.0993 9.53231 31.9457C9.4406 31.8985 9.34461 31.8434 9.2527 31.7883C9.14836 31.7292 9.04402 31.6663 8.94376 31.6033C8.91889 31.5875 8.89389 31.5718 8.86875 31.556C8.635 31.4065 8.39719 31.2569 8.1718 31.0955C8.01325 30.9853 7.85877 30.879 7.70429 30.7648C7.60403 30.694 7.50398 30.6192 7.40799 30.5405C7.34543 30.4972 7.28287 30.446 7.2201 30.3948C7.13675 30.3279 7.0532 30.261 6.96984 30.1901C6.84043 30.0917 6.71938 29.9815 6.6024 29.8792C6.13245 29.4707 5.68792 29.037 5.27104 28.5802C5.12921 28.4306 4.99552 28.281 4.86632 28.1236C4.83618 28.0925 4.80826 28.0597 4.78276 28.0251C2.68157 25.5234 1.39779 22.499 1.08804 19.3209C0.778281 16.1428 1.45594 12.9483 3.03834 10.1272C4.62074 7.30617 7.03947 4.98044 9.99946 3.43379C12.9594 1.88713 16.3327 1.1864 19.7078 1.41711C23.0828 1.64781 26.3137 2.79997 29.0063 4.73301C31.6989 6.66606 33.7367 9.29642 34.8713 12.3032C36.0059 15.31 36.1881 18.5632 35.3956 21.666C34.6032 24.7688 32.8705 27.587 30.4088 29.7768Z" fill="white"/>
</svg>
