<svg width="37" height="36" viewBox="0 0 37 36" fill="none" xmlns="http://www.w3.org/2000/svg">
<path d="M9.47521 13.0146C8.59976 13.5434 8.01953 14.4688 8.01953 15.522V21.0154C8.01953 23.67 10.3014 25.822 13.1162 25.822H21.8535C22.9703 25.822 23.9516 25.2748 24.5122 24.4492L13.1162 24.4487C11.1056 24.4487 9.47574 22.9116 9.47574 21.0154L9.47521 13.0146ZM10.4465 13.5627V20.5576C10.4465 22.1442 11.7634 23.4409 13.4226 23.5285L13.6016 23.5331H24.7659C26.4483 23.5331 27.8231 22.2912 27.916 20.7264L27.921 20.5576V13.5627L19.5229 17.7319C19.3106 17.8373 19.0569 17.8373 18.8447 17.7319L10.4465 13.5627ZM24.7659 9.7998H13.6016C12.1215 9.7998 10.8794 10.761 10.5389 12.0577L19.1838 16.3483L27.8287 12.0577C27.5024 10.8151 26.348 9.88049 24.9497 9.80477L24.7659 9.7998Z" fill="white"/>
<path d="M20.0917 34.0811C19.549 34.1283 18.9981 34.1519 18.4473 34.1519C17.913 34.1519 17.3829 34.1322 16.8528 34.085C16.8863 34.396 16.9154 34.7148 16.9448 35.0455C17.4414 35.0849 17.9464 35.1045 18.4473 35.1045C19.027 35.1061 19.6065 35.0798 20.1834 35.0258C20.9296 34.9599 21.671 34.8521 22.4037 34.703C22.3975 34.3797 22.4426 34.0573 22.5374 33.7465L22.5414 33.6914C21.7358 33.8763 20.9171 34.0065 20.0917 34.0811ZM35.8636 11.9902C34.9817 9.60074 33.5577 7.42152 31.6911 5.60446C29.8244 3.7874 27.56 2.37624 25.0557 1.46937C22.5514 0.562503 19.8674 0.18176 17.1911 0.353692C14.5147 0.525625 11.9103 1.24609 9.55952 2.46486C7.20872 3.68363 5.16809 5.37136 3.57991 7.41036C1.99173 9.44937 0.894227 11.7906 0.363953 14.2707C-0.166322 16.7508 -0.116615 19.3102 0.509607 21.7704C1.13583 24.2305 2.32348 26.5323 3.98977 28.515C4.15667 28.7119 4.32786 28.9087 4.50313 29.0976C4.51984 29.1134 4.5282 29.1252 4.54063 29.137C4.97151 29.6057 5.42994 30.0512 5.91377 30.4714C6.03074 30.5738 6.1516 30.6761 6.27265 30.7745C6.28528 30.7824 6.29363 30.7942 6.30607 30.8021C6.55652 31.0146 6.81535 31.2154 7.08231 31.4083C7.12001 31.4358 7.15343 31.4594 7.18665 31.487C7.25777 31.5382 7.32875 31.5894 7.39961 31.6405C7.82532 31.9436 8.26775 32.2231 8.71853 32.4947C8.72688 32.4947 8.73096 32.4986 8.73932 32.5026C8.86873 32.5774 9.0022 32.6521 9.1316 32.723C9.26529 32.7978 9.40306 32.8726 9.5449 32.9474C9.64924 33.0025 9.75765 33.0576 9.86199 33.1088L10.0165 33.1836C10.3753 33.3568 10.7385 33.5221 11.1141 33.6756C11.1893 33.7071 11.2726 33.7386 11.3478 33.7701L11.3645 33.778C11.5398 33.8449 11.7151 33.9118 11.8946 33.9748C12.4819 34.1865 13.0809 34.3679 13.6892 34.518C13.7935 34.5456 13.8938 34.5692 13.9981 34.5889C14.9652 34.8177 15.9508 34.9705 16.9448 35.0455C17.4414 35.0849 17.9464 35.1045 18.4473 35.1045C19.027 35.1061 19.6065 35.0798 20.1834 35.0258C20.9296 34.9599 21.671 34.8521 22.4037 34.703C22.9547 34.5889 23.5015 34.4511 24.0399 34.2936C24.044 34.2936 24.044 34.2897 24.0483 34.2897C24.4363 34.1755 24.8161 34.0456 25.1917 33.9079C25.5799 33.7622 25.9598 33.6048 26.3354 33.4355C26.3437 33.4316 26.3562 33.4276 26.3645 33.4237C26.3645 33.4198 26.3729 33.4198 26.3772 33.4158C26.5441 33.341 26.7067 33.2623 26.8738 33.1836C26.8989 33.1718 26.9237 33.16 26.9531 33.1442C27.0782 33.0852 27.2033 33.0222 27.3287 32.9592C27.337 32.9553 27.3411 32.9513 27.3495 32.9474C27.6792 32.7742 28.0048 32.5931 28.3262 32.4002C28.4138 32.3491 28.5015 32.2979 28.5891 32.2388C28.7185 32.1641 28.8436 32.0814 28.9647 31.9987C29.1275 31.8924 29.2902 31.7822 29.4489 31.6681C29.5016 31.6361 29.5518 31.6006 29.5991 31.5618C29.9873 31.2863 30.3629 30.995 30.7218 30.6879C33.4436 28.4005 35.385 25.403 36.3003 22.0748C37.2155 18.7465 37.0636 15.237 35.8636 11.9902ZM30.4088 29.6723C29.957 30.0732 29.4834 30.4516 28.9898 30.806C28.8814 30.8847 28.7685 30.9635 28.656 31.0343C28.5474 31.113 28.4389 31.1878 28.3263 31.2587C28.2303 31.3217 28.1343 31.3847 28.034 31.4437C28.0257 31.4516 28.0132 31.4555 28.0049 31.4634C27.9338 31.5106 27.8588 31.5539 27.7878 31.5972C27.5665 31.7271 27.3371 31.857 27.1117 31.979C27.0575 32.0066 27.0073 32.0381 26.9531 32.0656C26.9238 32.0814 26.8946 32.0971 26.8612 32.1129C26.7361 32.1798 26.6107 32.2388 26.4856 32.3018C26.4689 32.3136 26.4481 32.3176 26.4314 32.3294C26.4251 32.3303 26.4193 32.3331 26.4147 32.3372C26.3271 32.3806 26.2394 32.4199 26.1518 32.4593C26.0766 32.4947 26.0057 32.5301 25.9305 32.5616C25.6258 32.6994 25.3128 32.8293 24.9998 32.9513C24.6701 33.0773 24.3362 33.1914 23.9981 33.2977C23.9146 33.3253 23.827 33.3568 23.7393 33.3804C23.3427 33.4985 22.9464 33.6048 22.5414 33.6914C21.7358 33.8763 20.9171 34.0065 20.0917 34.0811C19.549 34.1283 18.9981 34.1519 18.4473 34.1519C17.913 34.1519 17.3829 34.1322 16.8528 34.085C15.9073 34.0034 14.9707 33.8481 14.0524 33.6205C14.0189 33.6126 13.9815 33.6048 13.948 33.5969C13.1948 33.4117 12.4569 33.1748 11.7402 32.8883C11.7027 32.8726 11.6609 32.8608 11.6275 32.845C11.5857 32.8293 11.5482 32.8175 11.5148 32.8017C11.473 32.786 11.4355 32.7702 11.398 32.7545C11.085 32.6246 10.7803 32.4829 10.4756 32.3372L10.3336 32.2664C10.0624 32.1326 9.79519 31.9948 9.53231 31.8412C9.4406 31.794 9.34461 31.7389 9.2527 31.6838C9.14836 31.6248 9.04402 31.5618 8.94376 31.4988C8.91889 31.483 8.89389 31.4673 8.86875 31.4516C8.635 31.302 8.39719 31.1524 8.1718 30.991C8.01325 30.8808 7.85877 30.7745 7.70429 30.6604C7.60403 30.5895 7.50398 30.5147 7.40799 30.436C7.34543 30.3927 7.28287 30.3415 7.2201 30.2903C7.13675 30.2234 7.0532 30.1565 6.96984 30.0856C6.84043 29.9872 6.71938 29.877 6.6024 29.7747C6.13245 29.3662 5.68792 28.9325 5.27104 28.4757C5.12921 28.3261 4.99552 28.1765 4.86632 28.0191C4.83618 27.988 4.80826 27.9552 4.78276 27.9206C2.68157 25.4189 1.39779 22.3945 1.08804 19.2164C0.778281 16.0383 1.45594 12.8438 3.03834 10.0228C4.62074 7.20168 7.03947 4.87595 9.99946 3.32929C12.9594 1.78264 16.3327 1.08191 19.7078 1.31262C23.0828 1.54332 26.3137 2.69548 29.0063 4.62852C31.6989 6.56156 33.7367 9.19192 34.8713 12.1987C36.0059 15.2055 36.1881 18.4587 35.3956 21.5615C34.6032 24.6643 32.8705 27.4825 30.4088 29.6723Z" fill="white"/>
</svg>
